<svg width="64" height="18" viewBox="0 0 64 18" fill="none" xmlns="http://www.w3.org/2000/svg">
<path opacity="0.3" fill-rule="evenodd" clip-rule="evenodd" d="M8.53109 5.12376C11.1377 1.25883 15.8017 -0.674416 20.3782 0.212982L8.41715 17.9478C5.87959 14.0372 5.92444 8.98868 8.53109 5.12376ZM0 5.46383C2.51344 4.7596 5.10422 4.93686 7.4042 5.84528C5.8583 8.73142 5.55458 12.0156 6.46563 15.0466L0 5.46383ZM40.6918 15.4996H39.2697V15.9355H40.6851C40.8196 15.9134 40.9546 15.973 41.0291 16.0876C41.1035 16.2021 41.1035 16.3499 41.0291 16.4645C40.9546 16.579 40.8196 16.6387 40.6851 16.6166H39.2697V17.9787H39.7022V17.057H40.6918C41.1208 17.057 41.4686 16.7084 41.4686 16.2783C41.4686 15.8482 41.1208 15.4996 40.6918 15.4996ZM46.7272 15.4974H47.1598V17.5633H48.5933V17.997H47.1598H46.7272V17.5633V15.4974ZM55.6544 16.8596C55.6692 17.1201 55.5389 17.3675 55.316 17.5022C55.093 17.637 54.814 17.637 54.5911 17.5022C54.3681 17.3675 54.2379 17.1201 54.2527 16.8596V15.4974H53.8179V16.8596C53.8179 17.4865 54.3248 17.9947 54.9501 17.9947C55.5755 17.9947 56.0824 17.4865 56.0824 16.8596V15.4974H55.6476L55.6544 16.8596ZM62.8601 16.7159C62.9426 16.759 63.0187 16.8132 63.0866 16.877C63.2014 16.9853 63.2689 17.1346 63.2745 17.2925C63.2764 17.4924 63.1819 17.6809 63.0209 17.7988C62.775 17.9471 62.4896 18.016 62.2034 17.9963C61.8662 17.9929 61.5325 17.9283 61.2183 17.8056V17.372C61.5322 17.524 61.8752 17.6061 62.2238 17.6126C62.5204 17.6126 62.7967 17.5218 62.8148 17.3311C62.8206 17.2696 62.7971 17.209 62.7514 17.1676C62.7194 17.1387 62.6836 17.1142 62.645 17.095C62.5755 17.0584 62.5036 17.0265 62.4298 16.9996L62.2849 16.9452L61.9973 16.8362C61.7663 16.7738 61.5495 16.6675 61.3587 16.5229C61.2709 16.425 61.2225 16.298 61.2228 16.1664C61.2206 15.9797 61.3041 15.8022 61.4493 15.6851C61.6786 15.5361 61.9517 15.4696 62.2238 15.4967C62.5627 15.5215 62.8977 15.5848 63.2224 15.6851V16.087C62.9025 15.9575 62.5637 15.8808 62.2192 15.86C62.0743 15.8454 61.9284 15.8746 61.8003 15.944C61.7229 15.9761 61.6715 16.0507 61.6689 16.1347C61.6712 16.2232 61.7029 16.2573 61.8229 16.314C61.8865 16.3441 61.9495 16.3646 62.0266 16.3897C62.095 16.412 62.1747 16.438 62.2758 16.4775L62.5544 16.5842C62.6598 16.6194 62.7621 16.6634 62.8601 16.7159ZM27.1368 15.4974H26.5661L24.4238 17.997H24.9945L25.7803 17.0798L26.5661 17.997H27.1368L26.0656 16.7483L27.1368 15.4974ZM24.9945 15.4974L25.5923 16.1966L25.307 16.5281L24.4238 15.4974H24.9945ZM34.1821 15.4974H33.942L33.0747 16.5099L32.2074 15.4974H32.2051H31.9809H31.7726V17.997H32.2074V16.1648L32.7871 16.8437H33.3601L33.942 16.1648V17.997H34.3746V15.4974H34.1821ZM50.2695 12.7497H42.8326V13.9075H50.2695V12.7497ZM43.9872 6.24026H49.112V7.39811H43.9872V6.24026ZM48.4736 12.1826H47.0243C46.8839 12.1778 46.7629 12.0822 46.7254 11.9465L45.6429 8.05521H46.8431L47.7489 11.3517L48.6661 8.06429H49.8641L48.7839 11.9556C48.7412 12.0912 48.6155 12.1832 48.4736 12.1826ZM44.316 11.9468C44.3586 12.0824 44.4844 12.1744 44.6262 12.1738H45.5819L44.436 8.04642H43.2358L44.316 11.9468ZM40.7006 10.403H38.6149V11.5608H40.7006V10.403ZM41.2509 7.39883H42.4058V3.4962C42.4034 3.32081 42.2615 3.17958 42.0865 3.17836H38.6149V4.33848H41.2509V7.39883ZM39.7698 8.05491H42.3832C42.5608 8.05491 42.7047 8.19924 42.7047 8.37729V11.6942C42.7023 12.9117 41.7203 13.8992 40.5058 13.9054H38.6149V12.7476H40.5036C41.0825 12.7439 41.5498 12.2723 41.5498 11.6919V9.21276H38.9342C38.7579 9.21276 38.6149 9.06944 38.6149 8.89265V5.05813H39.7698V8.05491ZM45.7264 4.11338C46.1952 3.70456 46.8927 3.70456 47.3615 4.11338L49.5128 5.9614L50.2737 5.07372L48.1563 3.25748C47.2561 2.45114 45.8986 2.44045 44.9859 3.23251L42.8414 5.07599L43.5932 5.95459L45.7264 4.11338ZM24.0845 6.17575L26.596 2.64772L27.5448 3.31745L25.3935 6.34375H26.7228C26.8947 6.35108 27.0299 6.49365 27.0285 6.66613V13.9084H25.8736V7.49252H24.2883C24.1137 7.4938 23.9705 7.35423 23.9668 7.17921V7.02484V6.55034C23.9665 6.41629 24.0076 6.28543 24.0845 6.17575ZM32.2458 6.21661H35.6698V5.05876H32.2458V2.64772H31.0908V5.05876H27.6736V6.21661H31.0908V11.5927H29.021L30.0061 6.87046H28.8262L27.6804 12.3623C27.6606 12.4573 27.6846 12.5562 27.7456 12.6315C27.8067 12.7068 27.8983 12.7505 27.9951 12.7505H31.0908V13.9084H32.2458V12.7505H35.3482C35.445 12.7505 35.5367 12.7068 35.5977 12.6315C35.6588 12.5562 35.6828 12.4573 35.663 12.3623L34.5171 6.87046H33.3373L34.3201 11.5927H32.2458V6.21661ZM63.7298 3.4968V3.73746H63.7343V6.34375H62.5794V4.33454H54.2005V5.1859H59.6762C59.7613 5.1853 59.8431 5.21875 59.9034 5.27885C59.9638 5.33895 59.9978 5.42072 59.9978 5.50601V6.34375H58.3288L53.7996 10.2441L53.0455 9.36777L56.5533 6.34375H53.3671C53.2816 6.34436 53.1995 6.31059 53.139 6.25C53.0786 6.18941 53.0449 6.10705 53.0455 6.02137V3.50135C53.0455 3.3233 53.1895 3.17896 53.3671 3.17896H57.8102V2.64772H58.9651V3.17896H63.4082C63.5841 3.17895 63.7273 3.32053 63.7298 3.4968ZM60.6481 7.6286V7.65812C60.6517 9.75933 61.223 11.8203 62.3012 13.6222L63.2523 12.9638C62.4257 11.5587 61.9365 9.98012 61.8234 8.35282H63.7279V7.19498H60.6481V7.6286ZM58.6594 7.35163C58.7755 7.25032 58.9244 7.19467 59.0783 7.19498H59.9955V11.0794C59.9965 12.0853 59.7002 13.0688 59.144 13.906L58.1567 13.3043C58.5056 12.7884 58.7283 12.1973 58.8066 11.5789L56.1027 13.9082L55.3508 13.0296L58.8406 10.0238V8.72288L53.7973 13.0659L53.0455 12.1896L58.6594 7.35163Z" fill="#234154"/>
</svg>
