<svg xmlns="http://www.w3.org/2000/svg" width="60" height="13" viewBox="0 0 60 13" fill="none">
  <g clip-path="url(#clip0_11890_658783)">
    <path fill-rule="evenodd" clip-rule="evenodd" d="M10.7473 0.25344C11.9131 -0.0440388 13.1304 -0.0801288 14.3118 0.147752L5.91987 12.6058C5.0587 11.2848 4.60064 9.74181 4.60156 8.16495C4.60144 6.96171 4.86728 5.77331 5.38007 4.6848C5.89286 3.59629 6.63991 2.63459 7.56777 1.86851C8.49563 1.10243 9.58136 0.550919 10.7473 0.25344ZM21.1324 3.87605H20.4902H19.1719V2.9683H20.4902V2.11328H21.3979V3.60862C21.3979 3.67922 21.37 3.74696 21.3203 3.79706C21.2705 3.84716 21.203 3.87555 21.1324 3.87605ZM43.4941 3.43724H44.4546V2.11328H44.3999H43.4941H43.4922V3.31106H43.4941V3.43724ZM38.051 6.5625H29.1016V7.47025H38.051V6.5625ZM18.7773 2.96875H17.0391V3.8765H18.7773V2.96875ZM21.8125 2.96875H22.7202V3.8765H21.8125V2.96875ZM21.8047 9.51028H21.3979V8.75696H21.5731C21.8744 8.75018 22.1615 8.62693 22.3739 8.41309C22.5863 8.19924 22.7077 7.91142 22.7125 7.61003V5.13914V4.625H19.1775V5.53275V7.60438C19.1823 7.90577 19.3037 8.19359 19.5161 8.40744C19.7285 8.62128 20.0156 8.74453 20.3169 8.75131H20.4902V9.50463H19.1719V10.4124H20.4902V11.9002H21.3979V10.4124H22.7162V9.51028H21.8047ZM20.0853 7.59308V5.53275H21.8047V6.23899H20.4864V7.15615H21.8047V7.60249C21.8048 7.67014 21.7784 7.73513 21.7313 7.78366C21.6842 7.83218 21.62 7.86043 21.5524 7.86239H20.3358C20.3016 7.86118 20.2681 7.85324 20.237 7.83905C20.2059 7.82485 20.1779 7.80467 20.1547 7.77966C20.1314 7.75465 20.1133 7.72529 20.1014 7.69328C20.0895 7.66126 20.084 7.62721 20.0853 7.59308ZM18.6978 4.7079C18.7475 4.758 18.7755 4.82573 18.7755 4.89633L18.7717 4.97167V9.77031C18.7536 10.5272 18.5373 11.2662 18.1446 11.9135L17.3479 11.469C17.6877 10.9265 17.8678 10.2993 17.8677 9.6592V5.53666H17.0391V4.62891H18.5099C18.5805 4.6294 18.6481 4.6578 18.6978 4.7079ZM26.3218 6.69141H25.4141V9.50882H26.3218V6.69141ZM27.4573 4.7079C27.507 4.758 27.5349 4.82573 27.5349 4.89633L27.5406 4.90763V9.77031C27.5237 10.5274 27.3074 11.2667 26.9134 11.9135L26.1168 11.469C26.4566 10.9265 26.6367 10.2993 26.6366 9.6592V5.53666H25.4219V4.62891H27.2694C27.34 4.6294 27.4075 4.6578 27.4573 4.7079ZM24.0327 6.69141H23.125V9.50882H24.0327V6.69141ZM25.162 4.7079C25.2117 4.758 25.2397 4.82573 25.2397 4.89633V4.90763V9.77031C25.2222 10.5276 25.0052 11.2669 24.6106 11.9135L23.814 11.469C24.1538 10.9265 24.3339 10.2993 24.3338 9.6592V5.53666H23.1172V4.62891H24.9741C25.0447 4.6294 25.1123 4.6578 25.162 4.7079ZM26.0234 2.48731C25.8057 2.36109 25.5578 2.29667 25.3062 2.30098C25.0547 2.3053 24.809 2.37819 24.5959 2.51179L23.125 3.43461L23.6071 4.203L25.0667 3.28771C25.1469 3.23769 25.2395 3.21096 25.3341 3.2105C25.4252 3.21116 25.5144 3.23655 25.5921 3.28395L27.0592 4.203L27.5395 3.43461L26.0328 2.49296L26.0234 2.48731ZM41.7545 2.11328H42.6622V3.71597H44.8054V4.62372H44.3986V6.2377H43.4909V4.62372H42.6622V6.2377H41.7545V4.62372H40.9239V6.2377H40.0162V4.62372H39.6094V3.71597H40.0162V2.11328H40.9239V3.71597H41.7545V2.11328ZM46.297 2.11328H45.3912V4.21693H47.7943V8.48448C47.794 8.57985 47.7729 8.674 47.7322 8.76025C47.6915 8.8465 47.6323 8.92274 47.5588 8.98355L47.0447 9.43178L46.5306 8.98355C46.4574 8.92248 46.3984 8.84619 46.3578 8.76C46.3171 8.67381 46.2957 8.57978 46.2952 8.48448V4.62372H45.3912V8.48825C45.3911 8.71254 45.4395 8.93419 45.5332 9.13801C45.6268 9.34182 45.7634 9.52299 45.9336 9.66907L46.3535 10.0344L44.9844 11.2266L45.5795 11.9121L47.0447 10.6371L48.5099 11.9121L49.1069 11.2266L47.7359 10.0344L48.1558 9.66907C48.3258 9.52305 48.4623 9.3422 48.5562 9.13879C48.6501 8.93538 48.6992 8.71417 48.7001 8.49013V4.21693H49.1069V3.30918H46.297V2.11328ZM44.1542 9.90792C43.9971 10.1424 43.7742 10.3253 43.5135 10.4337L43.4005 10.4845L44.8167 11.074L44.4683 11.9121L42.2196 10.9704L39.9597 11.9121L39.6113 11.074L41.0275 10.4845L40.9013 10.4337C40.6401 10.3258 40.4167 10.1431 40.2592 9.90852C40.1016 9.67392 40.0171 9.39794 40.0162 9.11536V7.70854H39.6094V6.80079H44.1293C44.1645 6.80054 44.1994 6.80728 44.2319 6.82063C44.2645 6.83399 44.2941 6.85367 44.3189 6.87856C44.3438 6.90344 44.3635 6.93302 44.3769 6.96558C44.3902 6.99814 44.397 7.03303 44.3967 7.06822V9.11536C44.3957 9.39767 44.3113 9.67338 44.1542 9.90792ZM41.0131 9.40737C41.0722 9.494 41.1559 9.56089 41.2535 9.59937L42.2027 10.0005L43.1556 9.60502C43.2547 9.56638 43.3397 9.49846 43.3993 9.41031C43.4588 9.32216 43.4901 9.21797 43.489 9.1116V7.70854H40.922V9.11348C40.9223 9.21835 40.954 9.32073 41.0131 9.40737ZM52.8978 4.62372H53.3856V3.71597H52.8978V2.11328H51.99V3.71597H50.7734V4.62372H51.99V6.98726H50.7734V7.89501H51.99V9.64836C51.9894 10.2892 51.8087 10.917 51.4684 11.4601L52.2669 11.9027C52.6589 11.2557 52.875 10.5176 52.894 9.76136L52.8978 4.62372ZM53.756 2.11328H59.7336C59.7687 2.11328 59.8033 2.12021 59.8357 2.13367C59.868 2.14714 59.8974 2.16686 59.9221 2.19172C59.9468 2.21658 59.9663 2.24608 59.9795 2.27851C59.9927 2.31095 59.9994 2.34568 59.9992 2.38071V4.89491C59.9972 4.96403 59.9684 5.02965 59.9188 5.07783C59.8692 5.12601 59.8028 5.15295 59.7336 5.15293H55.0687V4.24517H59.0877V3.02103H54.6581V9.75947C54.641 10.516 54.4247 11.2546 54.031 11.9008L53.2344 11.4582C53.5738 10.9148 53.7545 10.2872 53.756 9.64647V2.11328ZM59.0949 7.8528H57.9894V5.62109H57.0817V6.23882H55.0703V7.15598H57.0817V7.8528H55.0703V10.3576C55.0713 10.7702 55.2354 11.1657 55.5268 11.4578C55.8182 11.7499 56.2133 11.915 56.6259 11.917H58.4508C58.8626 11.914 59.2565 11.7484 59.5468 11.4564C59.8371 11.1643 60.0003 10.7694 60.0008 10.3576V7.8528H59.0949ZM58.4395 11.0036H56.6316C56.4595 11.0036 56.2945 10.9358 56.1721 10.8148C56.0498 10.6939 55.98 10.5296 55.9781 10.3576V8.76055H59.0949V10.3576C59.0929 10.5299 59.0229 10.6945 58.9002 10.8155C58.7775 10.9365 58.6119 11.0041 58.4395 11.0036ZM58.3984 6.23828H60.003V7.14603H58.3984V6.23828ZM5.22168 4.11506C3.55926 3.4529 1.72468 3.35464 0 3.83656L4.54862 10.5893C4.32375 9.82257 4.20312 9.01131 4.20312 8.17188C4.20312 6.70429 4.57184 5.32282 5.22168 4.11506Z" fill="#A8B1B7"></path>
  </g>
  <defs>
    <clipPath id="clip0_11890_658783">
      <rect width="60" height="12.6087" fill="white"></rect>
    </clipPath>
  </defs>
</svg>