<svg width="116" height="20" viewBox="0 0 116 20" fill="none" xmlns="http://www.w3.org/2000/svg">
<path d="M6.69562 7.02405C8.74281 3.98865 12.4057 2.47033 16 3.16727L6.60613 17.0957C4.6132 14.0244 4.64843 10.0595 6.69562 7.02405Z" fill="#536976"/>
<path d="M0 7.2878C1.97448 6.73458 4.00974 6.874 5.81643 7.58793C4.60187 9.85543 4.36358 12.4358 5.08002 14.817L0 7.2878Z" fill="#536976"/>
<path d="M110.995 4.56348H111.847V5.81148H114.307V6.59148H111.847V7.99548H114.763V8.81148H108.211V7.99548H110.995V6.59148H108.643V5.81148H110.995V4.56348ZM108.019 10.3475H112.435V9.42348H113.299V10.3475H114.775V11.1515H113.299V14.3795C113.299 15.0875 112.939 15.4475 112.243 15.4475H110.647L110.455 14.6075C110.971 14.6315 111.463 14.6555 111.931 14.6555C112.267 14.6555 112.435 14.4875 112.435 14.1635V11.1515H108.019V10.3475ZM105.451 15.4235H104.395L104.215 14.5955C104.539 14.6315 104.851 14.6555 105.151 14.6555C105.463 14.6555 105.631 14.4755 105.631 14.1275V11.2835C105.163 11.4515 104.695 11.6075 104.239 11.7515L104.023 10.8875C104.575 10.7555 105.103 10.5995 105.631 10.4075V7.65948H104.155V6.83148H105.631V4.68348H106.483V6.83148H107.731V7.65948H106.483V10.0715C106.915 9.87948 107.335 9.67548 107.743 9.45948V10.3475C107.335 10.5635 106.915 10.7555 106.483 10.9355V14.3435C106.483 15.0635 106.135 15.4235 105.451 15.4235ZM109.267 11.7155C109.891 12.4475 110.371 13.0955 110.707 13.6475L110.023 14.1275C109.663 13.5275 109.183 12.8675 108.571 12.1355L109.267 11.7155Z" fill="#A8B1B7"/>
<path d="M96.9789 4.52734H97.8669V6.09934H102.583V6.93934H97.8669V8.77534H101.095V9.54334C100.423 10.8873 99.4509 12.0393 98.1789 12.9993C98.7789 13.3353 99.4389 13.6593 100.159 13.9473C101.011 14.2713 101.923 14.5473 102.895 14.7873L102.391 15.5433C101.359 15.2673 100.375 14.9313 99.4509 14.5473C98.7189 14.2353 98.0469 13.8873 97.4469 13.5033C96.0789 14.3673 94.4469 15.0513 92.5389 15.5673L92.0469 14.7993C93.8709 14.3673 95.4309 13.7673 96.7269 12.9993C96.1029 12.5313 95.5509 11.9913 95.0829 11.3913C94.6509 10.8393 94.3389 10.2273 94.1469 9.57934H93.2229V8.77534H96.9789V6.93934H92.3109V6.09934H96.9789V4.52734ZM97.4349 12.5313C98.5989 11.7153 99.4989 10.7313 100.123 9.57934H94.9989C95.2149 10.2153 95.5509 10.7793 96.0069 11.2713C96.4269 11.7513 96.9069 12.1713 97.4349 12.5313Z" fill="#A8B1B7"/>
<path d="M83.5523 7.08364H85.1003V4.57564H85.9883V7.08364H88.1363V4.57564H89.0123V7.08364H90.6083V7.92364H89.0123V10.7316H90.9443V11.5596H83.2163V10.7316H85.1003V7.92364H83.5523V7.08364ZM85.9883 10.7316H88.1363V7.92364H85.9883V10.7316ZM88.4963 12.0036C89.5043 13.1316 90.2723 14.1276 90.8123 14.9676L90.0443 15.4956C89.4923 14.5836 88.7363 13.5636 87.7883 12.4356L88.4963 12.0036ZM85.4603 12.0876L86.2523 12.4596C85.6283 13.6356 84.8843 14.6556 84.0323 15.5196L83.2883 14.9796C84.1283 14.1756 84.8603 13.2156 85.4603 12.0876ZM81.4163 8.81164C81.0203 9.33964 80.5883 9.85564 80.1083 10.3476L79.8203 9.43564C81.1283 7.97164 82.0763 6.30364 82.6763 4.43164L83.4923 4.80364C83.1803 5.73964 82.7843 6.62764 82.3043 7.45564V15.5316H81.4163V8.81164Z" fill="#A8B1B7"/>
<path d="M69.4286 15.4235H68.3486L68.1686 14.5835C68.5046 14.6075 68.8166 14.6315 69.1286 14.6315C69.4166 14.6315 69.5726 14.4755 69.5726 14.1755V11.2475C69.1166 11.4275 68.6486 11.5955 68.1806 11.7395L67.9766 10.8755C68.5166 10.7435 69.0446 10.5755 69.5726 10.3715V7.65948H68.1206V6.83148H69.5726V4.56348H70.4606V6.83148H71.6726V7.65948H70.4606V9.99948C70.8086 9.83148 71.1566 9.66348 71.4926 9.47148V10.3475C71.1566 10.5275 70.8086 10.6955 70.4606 10.8635V14.4035C70.4606 15.0755 70.1126 15.4235 69.4286 15.4235ZM72.6086 4.94748H77.8406V9.11148H72.6086V4.94748ZM77.0006 8.40348V7.37148H73.4486V8.40348H77.0006ZM73.4486 6.69948H77.0006V5.65548H73.4486V6.69948ZM71.7686 9.95148H78.6326V10.7195H75.6326V12.0755H78.1406V12.8555H75.6326V14.4035C76.1126 14.4755 76.6766 14.5115 77.3366 14.5115C77.9606 14.5115 78.5006 14.4875 78.9446 14.4515L78.7046 15.2915C78.2246 15.2915 77.7806 15.2795 77.3966 15.2795C75.8126 15.2675 74.7326 15.1115 74.1566 14.8235C73.7006 14.5835 73.2806 14.1275 72.9206 13.4555C72.6326 14.1995 72.2366 14.8835 71.7206 15.5075L71.0846 14.9555C71.9966 13.8515 72.5006 12.6035 72.5966 11.2355L73.3646 11.3195C73.3406 11.7515 73.2806 12.1595 73.1846 12.5675C73.5686 13.3715 74.0126 13.8875 74.5166 14.1155C74.6006 14.1515 74.6966 14.1875 74.8046 14.2235V10.7195H71.7686V9.95148Z" fill="#A8B1B7"/>
<path d="M57.4171 15.4235H56.3971L56.2171 14.6075C56.5291 14.6435 56.8411 14.6675 57.1291 14.6675C57.4291 14.6675 57.5851 14.4875 57.5851 14.1515V11.2115C57.1051 11.3915 56.6371 11.5595 56.1691 11.7035L55.9531 10.8635C56.5051 10.7315 57.0571 10.5635 57.5851 10.3715V7.65948H56.1451V6.83148H57.5851V4.56348H58.4251V6.83148H59.5771V7.65948H58.4251V10.0235C58.8091 9.85548 59.1811 9.67548 59.5411 9.48348V10.3355C59.1691 10.5275 58.7971 10.6955 58.4251 10.8635V14.3675C58.4251 15.0635 58.0891 15.4235 57.4171 15.4235ZM61.0051 10.1195C60.8611 12.1715 60.3931 13.9715 59.6011 15.5315L58.9291 14.9315C59.7811 13.3475 60.2131 11.2835 60.2251 8.76348V5.00748H66.5491V7.92348H64.2931V9.33948H66.8611V10.1195H64.2931V11.5955H66.3091V15.5315H65.5051V14.9435H62.2531V15.5315H61.4491V11.5955H63.4531V10.1195H61.0051ZM63.4531 7.92348H61.0651V8.76348C61.0651 8.95548 61.0531 9.14748 61.0531 9.33948H63.4531V7.92348ZM62.2531 14.1755H65.5051V12.3635H62.2531V14.1755ZM65.7091 5.81148H61.0651V7.14348H65.7091V5.81148Z" fill="#A8B1B7"/>
<path d="M51.3451 7.19191L51.1891 7.81591C51.4891 9.21991 51.8731 10.4319 52.3531 11.4399C52.8211 10.2279 53.0731 8.81191 53.1211 7.19191H51.3451ZM51.9571 12.3039C51.4891 11.3799 51.0931 10.3239 50.7691 9.12391C50.5531 9.67591 50.3131 10.1679 50.0611 10.5999L49.5211 9.93991C50.2291 8.59591 50.7091 6.78391 50.9491 4.50391L51.7891 4.64791C51.7171 5.25991 51.6211 5.83591 51.5251 6.36391H54.6931V7.19191H53.9131C53.8531 9.19591 53.4811 10.9119 52.8091 12.3279C53.4331 13.4079 54.1651 14.2359 55.0291 14.8239L54.5611 15.5319C53.7211 14.9319 53.0011 14.1159 52.4011 13.1079C51.8251 14.0679 51.0811 14.8719 50.1811 15.5199L49.7371 14.7999C50.6731 14.1519 51.4051 13.3239 51.9571 12.3039ZM46.2691 10.1079L47.0731 10.2039C46.9891 10.4319 46.9051 10.6479 46.8331 10.8639H49.3411V11.5719C49.0771 12.3639 48.6331 13.0479 48.0091 13.6239C48.5851 13.8879 49.1371 14.1519 49.6651 14.4399L49.1971 15.1119C48.6691 14.7999 48.0571 14.4759 47.3491 14.1639C46.5571 14.7159 45.5611 15.1599 44.3611 15.4959L43.9531 14.7759C44.9371 14.5119 45.7891 14.1879 46.4851 13.7919C45.9571 13.5639 45.4051 13.3359 44.8171 13.1199C45.1291 12.5919 45.4051 12.0999 45.6451 11.6199H44.2291V10.8639H45.9811C46.0891 10.5999 46.1851 10.3479 46.2691 10.1079ZM47.2171 13.2879C47.8171 12.8079 48.2731 12.2439 48.5611 11.6199H46.4971C46.3051 12.0279 46.0891 12.4119 45.8491 12.7719C46.3291 12.9399 46.7851 13.1079 47.2171 13.2879ZM45.1771 4.75591C45.4651 5.22391 45.7051 5.72791 45.9211 6.25591L45.2971 6.54391C45.0451 5.95591 44.7811 5.43991 44.4931 4.98391L45.1771 4.75591ZM48.8251 4.71991L49.4491 5.00791C49.2091 5.53591 48.9091 6.05191 48.5251 6.55591L47.9131 6.24391C48.2971 5.72791 48.6091 5.22391 48.8251 4.71991ZM44.2531 6.83191H46.5931V4.53991H47.3971V6.83191H49.5811V7.58791H47.3971V7.71991C48.0451 8.04391 48.7171 8.41591 49.3891 8.82391L48.9451 9.49591C48.3451 9.01591 47.8291 8.63191 47.3971 8.34391V9.90391H46.5931V7.62391C46.1971 8.57191 45.4771 9.38791 44.4451 10.0839L44.0251 9.38791C44.9491 8.84791 45.5971 8.24791 45.9571 7.58791H44.2531V6.83191Z" fill="#A8B1B7"/>
<path d="M32.0469 9.49609H42.8349V10.3601H32.0469V9.49609Z" fill="#A8B1B7"/>
<path d="M28.016 4.56348H28.796C29.228 5.54748 29.984 6.39948 31.04 7.14348L30.608 7.80348C29.624 7.13148 28.88 6.29148 28.4 5.30748C27.824 6.38748 27.092 7.21548 26.204 7.80348L25.76 7.14348C26.744 6.47148 27.488 5.61948 28.016 4.56348ZM22.352 5.75148H23.768V4.63548H24.524V5.75148H25.952V6.49548H24.524V7.50348H25.688V11.7875H24.524V12.9275H25.94V13.2635C26.492 12.8435 26.972 12.3635 27.368 11.8235V8.75148H26.192V8.00748H28.088V14.5355C28.088 15.1235 27.764 15.4235 27.128 15.4235H26.54L26.348 14.7275L26.96 14.7635C27.224 14.7635 27.368 14.6075 27.368 14.3195V12.7955C27.032 13.2275 26.648 13.6115 26.228 13.9595L25.94 13.2995V13.6595H24.524V15.5435H23.768V13.6595H22.232V12.9275H23.768V11.7875H22.604V7.50348H23.768V6.49548H22.352V5.75148ZM24.932 11.1155V9.96348H23.372V11.1155H24.932ZM23.372 9.32748H24.932V8.17548H23.372V9.32748ZM28.928 15.4235L28.748 14.7275L29.372 14.7635C29.612 14.7635 29.732 14.6075 29.732 14.3195V12.6395C29.36 13.0715 28.928 13.4675 28.448 13.8275L28.16 13.1315C28.76 12.7235 29.288 12.2315 29.732 11.6795V8.75148H28.508V8.00748H30.452V14.5475C30.452 15.1235 30.14 15.4235 29.528 15.4235H28.928ZM28.928 9.30348C29.144 9.91548 29.324 10.5755 29.48 11.2715L28.964 11.4995C28.796 10.7315 28.616 10.0595 28.424 9.47148L28.928 9.30348ZM26.552 9.42348C26.768 10.0235 26.96 10.6715 27.128 11.3555L26.6 11.5955C26.432 10.8395 26.24 10.1675 26.048 9.59148L26.552 9.42348ZM20.78 4.70748C21.38 5.28348 21.884 5.85948 22.292 6.43548L21.728 6.99948C21.356 6.44748 20.852 5.87148 20.216 5.24748L20.78 4.70748ZM20.564 7.58748C21.164 8.17548 21.656 8.76348 22.052 9.35148L21.488 9.91548C21.128 9.35148 20.636 8.75148 20 8.12748L20.564 7.58748ZM21.368 10.7675L22.052 11.0435C21.68 12.5795 21.26 14.0315 20.804 15.3875L20.072 15.0635C20.576 13.6715 21.008 12.2315 21.368 10.7675Z" fill="#A8B1B7"/>
</svg>
