<svg width="100" height="16" viewBox="0 0 100 16" fill="none" xmlns="http://www.w3.org/2000/svg">
<path fill-rule="evenodd" clip-rule="evenodd" d="M37.5589 15.1853C35.5499 13.1763 33.5023 11.2058 31.4679 9.2479C30.4702 8.28771 29.4756 7.33056 28.4903 6.37341C28.4333 6.43045 28.4523 6.48748 28.4713 6.54452C28.4808 6.57304 28.4903 6.60155 28.4903 6.63007V14.4153C28.4903 14.672 28.4903 14.672 28.2337 14.672H26.3515C26.266 14.672 26.2232 14.672 26.2018 14.6506C26.1804 14.6292 26.1804 14.5865 26.1804 14.5009V0.898053V0.8125C29.1747 3.80684 32.1691 6.71562 35.249 9.62441C35.306 9.56737 35.287 9.51034 35.268 9.45331C35.2585 9.42479 35.249 9.39627 35.249 9.36775V1.58247C35.249 1.32582 35.3345 1.24026 35.5912 1.24026H37.4733C37.5589 1.24026 37.6017 1.24026 37.6231 1.26165C37.6444 1.28304 37.6444 1.32582 37.6444 1.41137V15.0142C37.6444 15.057 37.6231 15.0784 37.6017 15.0998C37.5803 15.1212 37.5589 15.1425 37.5589 15.1853ZM88.8008 2.95119C89.5708 2.26677 90.4263 1.66791 91.3674 1.41125C94.3618 0.47017 97.4417 1.75346 99.0671 4.49114C100.778 7.48548 100.094 11.4209 97.3561 13.5597C94.1907 16.0408 89.6564 15.1852 87.6031 11.6776C87.0898 10.9076 86.8331 10.0521 86.662 9.11097C86.662 8.93987 86.662 8.93987 86.8331 8.93987H88.8864C89.0575 8.93987 89.0575 9.02542 89.0575 9.19652C89.4853 10.8221 90.4263 11.9342 91.9663 12.5331C93.934 13.2175 96.0728 12.362 97.0994 10.4798C98.4683 8.08434 97.3561 4.9189 94.8751 3.89227C93.4207 3.2934 92.0518 3.55006 90.7686 4.49114C90.5975 4.57669 90.5119 4.57669 90.4263 4.49114C89.5198 3.63363 89.5598 3.67284 89.5661 3.67905L89.5592 3.67255L89.558 3.67137L89.5578 3.67112L89.556 3.66943C89.52 3.63514 89.3714 3.49349 88.8008 2.95119ZM70.9261 7.05822C70.3272 11.1647 73.5782 14.929 77.9414 14.929C79.8235 14.8435 81.5346 14.0735 82.989 12.448C83.1601 12.3624 83.0745 12.2769 82.989 12.1913C82.7328 11.9778 82.4979 11.7857 82.263 11.5935L82.2627 11.5933L82.2618 11.5925L82.2616 11.5924C82.0264 11.3999 81.7912 11.2074 81.5346 10.9936C81.3635 10.8225 81.2779 10.8225 81.1924 10.9936C80.1657 12.1913 78.7969 12.7902 77.1714 12.5336C75.2037 12.2769 73.7493 10.8225 73.3215 8.94037C72.8938 7.05822 73.6638 5.09051 75.2893 4.06388C76.8292 3.03725 78.8825 3.03725 80.4224 4.23498C80.5079 4.40609 80.5935 4.32054 80.679 4.23498C80.8929 3.97833 81.1068 3.74306 81.3207 3.50779L81.3207 3.50775L81.3209 3.50751C81.5347 3.27233 81.7485 3.03715 81.9623 2.78059C82.1334 2.69504 82.1334 2.60949 81.9623 2.52393C80.8501 1.66841 79.4813 1.1551 78.0269 1.06954C74.4337 0.89844 71.4394 3.46501 70.9261 7.05822ZM54.1574 14.672H51.4197C51.2945 14.672 51.2609 14.6262 51.2184 14.568L51.2183 14.568C51.2028 14.5467 51.186 14.5238 51.1631 14.5009C50.5642 13.6454 49.944 12.7898 49.3237 11.9343C48.7034 11.0788 48.0832 10.2233 47.4843 9.36775C47.4704 9.33999 47.4566 9.30997 47.4423 9.27916C47.3688 9.12011 47.2854 8.93999 47.1421 8.93999C47.0993 8.93999 47.0352 9.00415 46.9603 9.07901C46.8855 9.15387 46.7999 9.23942 46.7144 9.2822C46.5005 9.49608 46.308 9.70995 46.1155 9.92383L46.1154 9.92392C45.9229 10.1378 45.7305 10.3516 45.5166 10.5655C45.4311 10.651 45.4311 10.7366 45.4311 10.9077V14.4154C45.4311 14.5865 45.3455 14.672 45.1744 14.672H43.2067C43.0356 14.672 42.95 14.672 42.95 14.4154V10.3088C42.95 10.2233 42.95 10.1377 43.0356 9.96662C44.3173 8.55679 45.6203 7.12562 46.9233 5.69443L46.9242 5.69339L46.9243 5.69333L46.9292 5.68791C48.2336 4.25527 49.5379 2.82263 50.8209 1.41137C50.9064 1.32581 50.992 1.24026 51.1631 1.24026H53.7297C53.7297 1.2973 53.7011 1.35433 53.6441 1.41137C52.8314 2.30965 52.0187 3.22931 51.2059 4.14898C50.3932 5.06869 49.5804 5.9884 48.7676 6.88673C48.6821 7.05783 48.6821 7.05783 48.7676 7.22894L53.9008 14.4154C53.9731 14.4877 54.0301 14.5294 54.0719 14.56C54.1289 14.6017 54.1574 14.6226 54.1574 14.672ZM0 1.58214V7.99858V14.415C0 14.5861 0 14.6717 0.171105 14.7572H8.72636C8.98302 14.7572 8.98302 14.6717 8.98302 14.5006V12.7895C8.98302 12.5329 8.89746 12.5329 8.72636 12.5329H2.65213C2.5238 12.5329 2.45964 12.5329 2.42755 12.5008C2.39547 12.4687 2.39547 12.4045 2.39547 12.2762V1.58214C2.39547 1.41103 2.30992 1.32548 2.13881 1.32548H0.256658C0 1.32548 0 1.41103 0 1.58214ZM11.0349 1.32548H13.6015C13.7268 1.32548 13.7603 1.37133 13.8029 1.42946C13.8185 1.45074 13.8352 1.47366 13.8582 1.49659C14.6708 2.69415 15.5048 3.91309 16.3388 5.13204L16.3392 5.13256L16.3399 5.13359C17.1738 6.35237 18.0077 7.57115 18.8202 8.76855C19.0274 9.11392 19.2904 9.4593 19.5191 9.75964L19.5192 9.75967C19.5737 9.83131 19.6263 9.90038 19.6757 9.96628C19.7613 10.0518 19.7613 10.1374 19.7613 10.3085V14.415C19.7613 14.5861 19.7613 14.6717 19.5902 14.6717H17.5369C17.3658 14.6717 17.3658 14.5861 17.3658 14.5006V10.9929C17.3658 10.8218 17.3658 10.7363 17.2803 10.5652C16.2537 9.02523 15.227 7.5067 14.2004 5.98816C13.1738 4.46958 12.1471 2.951 11.1205 1.41103L11.0349 1.32548ZM64.933 12.5325C64.8475 12.6181 64.8475 12.7036 64.933 12.7892C65.0685 12.9472 65.2099 13.1052 65.3541 13.2664C65.7564 13.716 66.1807 14.1901 66.5585 14.7569H64.7619C64.5908 14.7569 64.5908 14.7569 64.5053 14.6713C64.3342 14.4147 64.0775 14.1581 63.8209 13.9014L63.8208 13.9014C63.7353 13.7303 63.6497 13.8158 63.5642 13.9014C63.3075 14.158 62.9653 14.5002 62.6231 14.6713C61.5965 15.2702 60.5698 15.1847 59.5432 14.5858C58.6021 14.0725 58.1744 13.1314 58.2599 12.0192C58.3455 11.2492 58.7732 10.7359 59.2866 10.2226L59.2867 10.2225C59.5433 9.9659 59.7144 9.79482 59.971 9.62374C59.8854 9.49541 59.7999 9.38847 59.7143 9.28153C59.6288 9.17459 59.5432 9.06765 59.4577 8.93932C58.6021 7.91269 58.5166 6.71495 59.201 5.77388C60.0565 4.57614 61.682 4.40504 62.7942 5.26056C63.9919 6.20164 64.0775 7.82714 63.0509 8.85377C62.9225 8.9821 62.7728 9.08904 62.6231 9.19598C62.4734 9.30292 62.3237 9.40986 62.1954 9.53819C62.1098 9.62374 62.1098 9.70929 62.1954 9.79485C62.452 10.0943 62.7087 10.3723 62.9653 10.6504C63.222 10.9284 63.4786 11.2065 63.7353 11.5059C63.8208 11.5914 63.9064 11.5914 63.992 11.5059C64.3342 11.0781 64.7619 10.907 65.2752 10.9926H66.3874C66.3874 11.0496 66.3589 11.1067 66.3019 11.1637C66.1623 11.3032 66.0228 11.4519 65.8803 11.6037C65.5859 11.9172 65.2789 12.2443 64.933 12.5325ZM62.3665 6.6294C62.1954 6.20164 61.8531 5.94498 61.4254 5.94498C60.3987 5.94498 59.8854 6.80051 60.3132 7.57048C60.4273 7.85566 60.6174 8.0648 60.8075 8.27393C60.9026 8.37849 60.9976 8.48305 61.0832 8.59711C61.1259 8.63989 61.1473 8.66128 61.1687 8.66128C61.1901 8.66127 61.2115 8.63989 61.2543 8.59711C61.3826 8.46879 61.5323 8.34047 61.682 8.21215C61.8317 8.08381 61.9815 7.95548 62.1098 7.82714C62.452 7.48493 62.5376 7.05717 62.3665 6.6294ZM61.8531 13.3025C62.1954 13.1314 62.452 12.8747 62.7087 12.6181C62.7942 12.5325 62.7942 12.5325 62.6231 12.447C62.3665 12.1475 62.0884 11.8481 61.8104 11.5487C61.5323 11.2493 61.2543 10.9498 60.9976 10.6504C60.9976 10.5648 60.9121 10.5648 60.8265 10.6504C60.6982 10.7359 60.5912 10.8429 60.4843 10.9498C60.3774 11.0567 60.2704 11.1637 60.1421 11.2492C59.971 11.5059 59.7999 11.7626 59.7999 12.1048C59.7999 13.1314 60.9121 13.8158 61.8531 13.3025Z" fill="#A8B1B7"/>
</svg>
