<?xml
version="1.0" encoding="UTF-8"?>
<svg width="14px" height="14px" viewBox="0 0 14 14" version="1.1" xmlns="http://www.w3.org/2000/svg" xmlns:xlink="http://www.w3.org/1999/xlink">
    <!-- Generator: Sketch 54 (76480) - https://sketchapp.com -->
    <title>icon_提示</title>
    <desc>Created with Sketch.</desc>
    <g id="调研家社区_视觉设计" stroke="none" stroke-width="1" fill="none" fill-rule="evenodd">
        <g id="1.4-单选题_提示" transform="translate(-20.000000, -188.000000)">
            <g id="单选题" transform="translate(20.000000, 123.000000)">
                <g id="提示" transform="translate(0.000000, 63.000000)">
                    <g id="icon_提示" transform="translate(0.000000, 2.000000)">
                        <rect id="Rectangle" stroke="#F45050" x="0.5" y="0.5" width="13" height="13" rx="6.5"></rect>
                        <path d="M6.13548387,3.13920353 L7.87741935,3.13920353 L7.55483871,8.73380186 L6.45806452,8.73380186 L6.13548387,3.13920353 Z M7,9.42960018 C7.28387097,9.42960018 7.52903226,9.51979626 7.72258065,9.70018842 C7.90322581,9.88058057 8.00645161,10.1125133 8.00645161,10.3959867 C8.00645161,10.6794601 7.90322581,10.9242781 7.72258065,11.1046702 C7.51612903,11.2850624 7.28387097,11.3752584 7,11.3752584 C6.71612903,11.3752584 6.48387097,11.2721772 6.30322581,11.0917851 C6.09677419,10.9113929 6.00645161,10.6794601 6.00645161,10.3959867 C6.00645161,10.1125133 6.09677419,9.88058057 6.30322581,9.70018842 C6.48387097,9.51979626 6.71612903,9.42960018 7,9.42960018 Z" id="！" fill="#F45050"></path>
                    </g>
                </g>
            </g>
        </g>
    </g>
</svg>
