<svg xmlns="http://www.w3.org/2000/svg" viewBox="0 0 10 10" class="design-iconfont" width="128" height="128"><path d="M0.758106 9.2362C1.051 9.52909 1.52587 9.52909 1.81877 9.2362L4.99747 6.0575L8.17945 9.23948C8.47234 9.53237 8.94721 9.53237 9.24011 9.23948C9.533 8.94659 9.533 8.47171 9.24011 8.17882L6.05813 4.99684L9.24339 1.81158C9.53628 1.51869 9.53628 1.04381 9.24339 0.75092C8.95049 0.458027 8.47562 0.458027 8.18273 0.75092L4.99747 3.93618L1.81549 0.754199C1.52259 0.461306 1.04772 0.461306 0.754826 0.754199C0.461933 1.04709 0.461933 1.52197 0.754826 1.81486L3.93681 4.99684L0.758106 8.17554C0.465213 8.46843 0.465213 8.94331 0.758106 9.2362Z" fill="#536976"></path></svg>