<svg xmlns="http://www.w3.org/2000/svg" viewBox="0 0 32 32" class="design-iconfont" width="128" height="128">
  <path d="M13.8168 3.85131L9.23909 13.7135V29H23.6626C25.6266 29 27.2876 27.5469 27.5488 25.6003L28.8793 15.6815C29.1948 13.33 27.3658 11.2392 24.9932 11.2392H19.5355V7.17439C19.5355 6.05329 19.0556 4.98582 18.2171 4.24169L17.6531 3.7412C17.115 3.2637 16.4206 3 15.7012 3H15.1505C14.5781 3 14.0577 3.33214 13.8168 3.85131Z" fill="#E4E7E9"></path>
  <path d="M3.07813 15.6456C3.07813 14.5628 3.95586 13.6851 5.03861 13.6851H7.79974V29H5.03861C3.95586 29 3.07812 28.1223 3.07812 27.0396L3.07813 15.6456Z" fill="#E4E7E9"></path>
</svg>