<svg xmlns="http://www.w3.org/2000/svg" viewBox="0 0 32 32" class="design-iconfont" width="128" height="128">
  <path d="M15.0919 2.74991C15.4494 1.97504 16.5506 1.97504 16.9081 2.74992L20.6293 10.8175C20.7021 10.9754 20.8518 11.0841 21.0244 11.1046L29.8471 12.1507C30.6945 12.2511 31.0348 13.2985 30.4083 13.8779L23.8855 19.91C23.7578 20.0281 23.7007 20.204 23.7345 20.3745L25.466 29.0886C25.6323 29.9256 24.7414 30.5729 23.9968 30.1561L16.2442 25.8166C16.0925 25.7316 15.9075 25.7316 15.7558 25.8166L8.00324 30.1561C7.25863 30.5729 6.36767 29.9256 6.53397 29.0886L8.26545 20.3745C8.29934 20.204 8.24219 20.0281 8.11452 19.91L1.5917 13.8779C0.965205 13.2985 1.30552 12.2511 2.15292 12.1507L10.9756 11.1046C11.1482 11.0841 11.2979 10.9754 11.3707 10.8175L15.0919 2.74991Z" fill="#E4E7E9"></path>
</svg>