<svg xmlns="http://www.w3.org/2000/svg" viewBox="0 0 33 32" class="design-iconfont" width="128" height="128">
  <path d="M15.2013 2.74991C15.5587 1.97504 16.66 1.97504 17.0174 2.74992L20.7386 10.8175C20.8115 10.9754 20.9611 11.0841 21.1338 11.1046L29.9565 12.1507C30.8039 12.2511 31.1442 13.2985 30.5177 13.8779L23.9949 19.91C23.8672 20.0281 23.81 20.204 23.8439 20.3745L25.5754 29.0886C25.7417 29.9256 24.8507 30.5729 24.1061 30.1561L16.3536 25.8166C16.2019 25.7316 16.0169 25.7316 15.8652 25.8166L8.11261 30.1561C7.368 30.5729 6.47704 29.9256 6.64335 29.0886L8.37483 20.3745C8.40872 20.204 8.35156 20.0281 8.22389 19.91L1.70108 13.8779C1.07458 13.2985 1.4149 12.2511 2.26229 12.1507L11.0849 11.1046C11.2576 11.0841 11.4073 10.9754 11.4801 10.8175L15.2013 2.74991Z" fill="#FDAB3D"></path>
</svg>