<svg width="120" height="99" viewBox="0 0 120 99" fill="none" xmlns="http://www.w3.org/2000/svg">
<g id="&#231;&#169;&#186;&#231;&#138;&#182;&#230;&#128;&#129;_&#233;&#151;&#174;&#229;&#141;&#183;&#229;&#129;&#156;&#231;&#148;&#168;&#231;&#187;&#147;&#230;&#157;&#159;&#233;&#161;&#181;">
<g id="&#233;&#151;&#174;&#229;&#141;&#183;">
<path id="&#229;&#189;&#162;&#231;&#138;&#182;&#231;&#187;&#147;&#229;&#144;&#136;" fill-rule="evenodd" clip-rule="evenodd" d="M69.5 0L71.9375 14.5L76.186 22.4374L77.1562 24.25L77.1902 22.1943L77.375 11L83.25 0H104H105V1V94V95H104V94V93V1H83.8496L78.3709 11.258L78.1561 24.2665L78.0925 28.1183L76.2746 24.7219L71.0559 14.9719L70.9785 14.8274L70.9513 14.6658L68.6541 1H52.5602L29 24.5602V93V94V95H28V94V24.146L52.146 0H69.5Z" fill="#234154"/>
<path id="&#231;&#159;&#169;&#229;&#189;&#162;&#229;&#164;&#141;&#229;&#136;&#182; 5" fill-rule="evenodd" clip-rule="evenodd" d="M45 42H88V43H45V42Z" fill="#234154"/>
<path id="&#231;&#159;&#169;&#229;&#189;&#162;&#229;&#164;&#141;&#229;&#136;&#182; 6" fill-rule="evenodd" clip-rule="evenodd" d="M45 52H88V53H45V52Z" fill="#234154"/>
<path id="&#231;&#159;&#169;&#229;&#189;&#162;&#229;&#164;&#141;&#229;&#136;&#182; 7" fill-rule="evenodd" clip-rule="evenodd" d="M45 62H68V63H45V62Z" fill="#234154"/>
<path id="Subtract" fill-rule="evenodd" clip-rule="evenodd" d="M28 25.2H52.2H53.2V24.2V0H52.2V24.2H28V25.2Z" fill="#234154"/>
</g>
<g id="&#233;&#151;&#174;&#233;&#162;&#152;">
<path id="&#229;&#189;&#162;&#231;&#138;&#182;&#231;&#187;&#147;&#229;&#144;&#136;_2" fill-rule="evenodd" clip-rule="evenodd" d="M104 97C112.837 97 120 90.5081 120 82.5C120 74.4919 112.837 68 104 68C95.1634 68 88 74.4919 88 82.5C88 86.5698 89.8502 90.248 92.8298 92.8815L92.565 98.7539L99.3876 96.3884C100.848 96.7862 102.396 97 104 97Z" fill="#536976"/>
<path id="Union" fill-rule="evenodd" clip-rule="evenodd" d="M108 78L107 78V87H108V78ZM101 78H100L100 87L101 87L101 78Z" fill="white"/>
</g>
<path id="&#232;&#183;&#175;&#229;&#190;&#132; 7" d="M1 52C1 52 17.8837 66.5127 20.8313 88.5289C21.2726 88.5289 20.7378 88.5289 21.1156 88.5289C21.5562 84.6944 23.6248 67.9797 32.7002 66.8444C34.6247 66.6171 36.9289 67.1041 39.7823 71.4764" stroke="#234154" stroke-width="0.8"/>
</g>
</svg>
