<svg width="12" height="12" viewBox="0 0 12 12" fill="none" xmlns="http://www.w3.org/2000/svg">
<path fill-rule="evenodd" clip-rule="evenodd" d="M5.25 0.75C5.25 0.335786 5.58579 0 6 0C6.41421 0 6.75 0.335786 6.75 0.75V2.25C6.75 2.66421 6.41421 3 6 3C5.58579 3 5.25 2.66421 5.25 2.25V0.75ZM5.25 9.75C5.25 9.33579 5.58579 9 6 9C6.41421 9 6.75 9.33579 6.75 9.75V11.25C6.75 11.6642 6.41421 12 6 12C5.58579 12 5.25 11.6642 5.25 11.25V9.75ZM9.18198 1.75738C9.47487 1.46449 9.94975 1.46449 10.2426 1.75738C10.5355 2.05027 10.5355 2.52515 10.2426 2.81804L9.18198 3.8787C8.88909 4.17159 8.41421 4.17159 8.12132 3.8787C7.82843 3.58581 7.82843 3.11093 8.12132 2.81804L9.18198 1.75738ZM2.81802 8.12134C3.11091 7.82845 3.58579 7.82845 3.87868 8.12134C4.17157 8.41424 4.17157 8.88911 3.87868 9.182L2.81802 10.2427C2.52513 10.5356 2.05025 10.5356 1.75736 10.2427C1.46447 9.94977 1.46447 9.47489 1.75736 9.182L2.81802 8.12134ZM12 6C12 5.58579 11.6642 5.25 11.25 5.25H9.75C9.33579 5.25 9 5.58579 9 6C9 6.41421 9.33579 6.75 9.75 6.75H11.25C11.6642 6.75 12 6.41421 12 6ZM3 6C3 5.58579 2.66421 5.25 2.25 5.25H0.75C0.335787 5.25 0 5.58579 0 6C0 6.41421 0.335787 6.75 0.75 6.75L2.25 6.75C2.66421 6.75 3 6.41421 3 6ZM10.2427 9.18207C10.5355 9.47497 10.5355 9.94984 10.2427 10.2427C9.94976 10.5356 9.47488 10.5356 9.18199 10.2427L8.12133 9.18207C7.82844 8.88918 7.82844 8.41431 8.12133 8.12141C8.41422 7.82852 8.8891 7.82852 9.18199 8.12141L10.2427 9.18207ZM3.87869 2.81811C4.17158 3.111 4.17158 3.58588 3.87869 3.87877C3.5858 4.17166 3.11092 4.17166 2.81803 3.87877L1.75737 2.81811C1.46448 2.52522 1.46448 2.05034 1.75737 1.75745C2.05026 1.46456 2.52514 1.46456 2.81803 1.75745L3.87869 2.81811Z" fill="#234154"/>
</svg>
